<svg version="1.1" id="Layer_1" xmlns:x="ns_extend;" xmlns:i="ns_ai;" xmlns:graph="ns_graphs;" xmlns="http://www.w3.org/2000/svg" xmlns:xlink="http://www.w3.org/1999/xlink" x="0px" y="0px" viewBox="0 0 400 147.6" style="enable-background:new 0 0 400 147.6;" xml:space="preserve">
 <style type="text/css">
  .st0{fill-rule:evenodd;clip-rule:evenodd;fill:#A6CE39;}
	.st1{fill-rule:evenodd;clip-rule:evenodd;fill:#231F20;}
	.st2{fill-rule:evenodd;clip-rule:evenodd;fill:#ED1C24;}
	.st3{fill-rule:evenodd;clip-rule:evenodd;fill:#1268B3;}
 </style>
 <metadata>
  <sfw xmlns="ns_sfw;">
   <slices>
   </slices>
   <sliceSourceBounds bottomLeftOrigin="true" height="147.6" width="400" x="-161.1" y="-302.5">
   </sliceSourceBounds>
  </sfw>
 </metadata>
 <g>
  <path class="st0" d="M12.6,0h58.9c6.9,0,12.7,5.7,12.7,12.6V72c0,7-5.8,12.7-12.7,12.7H12.6C5.6,84.7,0,79,0,72V12.6
		C0,5.7,5.6,0,12.6,0z">
  </path>
  <path class="st1" d="M44,10.6h-6.7v18.3c2.4,0,4.6,0.7,6.7,2.1V10.6z">
  </path>
  <path class="st2" d="M39,61.9c-1.5,2.6-3.8,3.8-6.8,3.8c-2.1,0-3.9-0.6-5.4-1.8c-1.5-1.3-2.7-3-3.4-5c-0.7-2-1.2-4.1-1.2-6.4
		c0-2.3,0.5-4.5,1.2-6.5c0.7-2,1.9-3.7,3.4-4.9c1.5-1.3,3.3-1.9,5.4-1.9c2,0,3.8,0.6,5.2,1.8c1.3,1.2,2.3,2.9,3,4.9
		c0.6,2,0.9,4.1,0.9,6.6C41.4,56.3,40.6,59.4,39,61.9L39,61.9z M50.9,41.9c-1.3-3.3-3.3-6.1-5.9-8.1c-2.6-2-5.6-3.1-9.3-3.1
		c-2.6,0-5.1,0.5-7.3,1.5c-2.2,1.1-4.1,2.6-5.4,4.6H23V10.6h-11V74c0,0,10.1,1.2,10.5-5.3v-0.8v-0.2l0.1,0.5
		c0.2,0.5,0.6,1.1,1.2,1.9c0.8,1,2.1,1.9,4.1,2.9c2.1,1,4.7,1.3,8,1.3c3.6,0,6.7-1,9.3-3c2.6-2.1,4.6-4.7,5.9-8.1
		c1.3-3.4,2-7,2-10.6C52.9,48.9,52.2,45.4,50.9,41.9L50.9,41.9z">
  </path>
  <path class="st1" d="M70.2,42c-3.6-9.2-13.6-13.9-22.4-9.6c-0.4,0.2-0.8,0.4-1.2,0.6c1.3,1.2,2.5,2.6,3.6,4.1
		c1.1-0.4,2.3-0.6,3.6-0.6c8.5,0,11,9.1,11,16s-2.7,15.9-11,15.9c-1.4,0-2.7-0.2-3.9-0.7c-1.2,1.7-2.6,3.2-4.1,4.4
		c0.4,0.2,0.8,0.4,1.3,0.7c2.1,1,4.7,1.3,8,1.3c3.6,0,6.7-1,9.3-3c2.6-2.1,4.6-4.7,5.9-8.1c1.3-3.4,2-7,2-10.6
		C72.2,48.9,71.5,45.4,70.2,42L70.2,42z">
  </path>
  <path class="st2" d="M120.4,61.6c-1.6,2.6-3.8,3.8-6.8,3.8c-2.2,0-4-0.6-5.4-1.8c-1.6-1.2-2.8-3-3.4-5c-0.8-2-1.2-4-1.2-6.4
		c0-2.2,0.4-4.2,1.2-6.4c0.6-2,1.8-3.6,3.4-4.8c1.4-1.2,3.2-1.8,5.4-1.8c2,0,3.6,0.6,5,1.8c1.4,1.2,2.4,2.8,3.2,4.6
		c0.6,2.2,1,4.4,1,6.8C122.8,56,122,59.2,120.4,61.6L120.4,61.6z M132.1,41.7c-1.2-3.2-3.2-5.8-5.8-8.1c-2.6-2-5.8-3-9.4-3
		c-2.6,0-5,0.6-7.2,1.6c-2.4,1-4.2,2.4-5.4,4.4h-0.2v-26h-11v63c0,0,10,1.2,10.4-5.4v-0.8l0.2,0.4c0.2,0.4,0.6,1,1.2,1.8
		c0.8,1,2.2,1.8,4.2,2.8c2,1,4.6,1.4,7.8,1.4c3.6,0,6.8-1,9.4-3c2.6-2,4.6-4.8,5.8-8.1c1.4-3.4,2-6.8,2-10.5
		C134.1,48.8,133.5,45.1,132.1,41.7L132.1,41.7z">
  </path>
  <path class="st2" d="M148.1,31.8v42.1h-11V31.8H148.1z M137.1,20v-9.3h11V20H137.1z">
  </path>
  <path class="st2" d="M180.2,56c-0.4,1.4-0.8,2.6-1.6,3.6c-0.8,1-1.8,1.8-3,2.4c-1.2,0.8-2.6,1-4.2,1s-3-0.4-4.2-1
		c-1.2-0.8-2-1.8-2.8-3c-0.6-1-1.2-2.4-1.4-3.8c-0.4-1.4-0.4-3-0.4-4.4c0-1.6,0.2-3,0.4-4.4c0.4-1.4,1-2.6,1.6-3.6
		c0.8-1.2,1.8-2,2.8-2.6c1.2-0.6,2.6-1,4-1c1.8,0,3.4,0.4,4.6,1c1.2,0.8,2.2,1.6,2.8,2.8c0.8,1.2,1.2,2.6,1.6,4
		c0.2,1.4,0.4,3,0.4,4.8C180.7,53.2,180.6,54.6,180.2,56L180.2,56z M180.8,37.3h-0.2c-1.2-2.4-3-4-5-5c-2-1-4.2-1.6-6.8-1.6
		c-2.8,0-5.4,0.6-7.4,1.6c-2.2,1.2-4,2.6-5.4,4.6c-1.6,1.8-2.6,4-3.4,6.4c-0.8,2.4-1,5-1,7.7c0,2.8,0.2,5.4,0.8,7.9
		c0.8,2.6,1.8,4.8,3.2,6.6c1.4,1.8,3.2,3.4,5.4,4.4c2,1,4.6,1.6,7.6,1.6c2.4,0,4.8-0.4,7-1.4c2.2-1.2,4-2.8,5-4.8h0.2v5.2
		c0.2,3-0.6,5.4-2,7.2c-1.4,2-3.6,2.8-6.8,2.8c-2,0-3.6-0.4-5.2-1.2c-1.4-0.8-2.6-2.2-3-4.2h-11c0.2,2.2,0.8,4.2,2,5.8
		c1,1.6,2.4,3,4.2,4c1.6,1.2,3.4,2,5.6,2.4c2,0.6,4,0.8,6,0.8c4.6,0,8.2-0.6,11-2c2.6-1.2,4.8-2.8,6.2-4.6c1.4-1.8,2.4-3.6,2.8-5.8
		c0.6-2,0.8-4,0.8-5.6V31.8h-1.4C181.2,32,180.8,37.3,180.8,37.3z">
  </path>
  <path class="st1" d="M400,37.9v-0.8c-0.6-4.8-6.6-4.8-6.6-4.8V10.5h-6.8v21.7h-5.6v5.6h5.6v27.4c0,4.8,1.4,8.9,8.2,8.9
		c0.8,0,2.8-0.4,5.2-0.6v-5.4h-2.4c-1.4,0-4.2,0-4.2-3.2v-27H400z">
  </path>
  <path class="st1" d="M343,34.7c-3.8-4-8.4-0.4-9.2,0.4l-15.3,15.1V10.5h-6.6v63.6h6.6V58.4l5.8-5.2L337,74.1h8.8l-16.5-26L343,34.7
		L343,34.7z">
  </path>
  <path class="st1" d="M296.2,49.6l-6.8-1.8c-5.4-1.4-7.6-2.2-7.6-5.4c0-5.2,6.2-5.8,8.2-5.8c4.6,0,7,1,8.2,2.6c0,0,3.8,4.4,8.2,3
		c-0.4-3.4-3-11.7-15.6-11.7c-8.2,0-15.5,4-15.5,13.1c0,5.6,3.8,8.7,9.6,10.1l8,2c5.8,1.4,8,2.6,8,5.8c0,4.6-4.4,6.6-9.4,6.6
		c-9.6,0-10.6-5.2-10.8-8.5h-6.8c0.4,5,1.6,14.5,17.7,14.5c9.2,0,16.1-5.2,16.1-13.7C307.7,54.8,304.7,51.6,296.2,49.6L296.2,49.6z">
  </path>
  <path class="st1" d="M362.1,36.7c8.4,0,11,5.8,11.4,12.3h-17.5c-2.6,0.2-4.2,1.4-5.2,2.6V49C350.8,42.5,355.8,36.7,362.1,36.7z
		 M362.7,68.1c-8,0-12-5-12-13.7h29.9c0-14.5-5.8-24-17.5-24c-13.5,0-19.7,10.1-19.7,23c0,11.9,6.8,20.7,18.3,20.7
		c6.6,0,9.2-1.6,11.2-3c5.2-3.4,7-9.3,7.2-11.3h-6.8C372.9,63,369.1,68.1,362.7,68.1L362.7,68.1z">
  </path>
  <path class="st1" d="M261.9,58.6c0,5.4-6.4,9.7-12.8,9.7c-5.2,0-7.4-2.6-7.4-7.2c0-5.2,5.4-6.2,8.8-6.6c8.6-1.2,10.2-1.8,11.4-2.6
		L261.9,58.6L261.9,58.6z M271.1,68.1c-1.4,0-2.4-0.6-2.4-2.4V41.9c0-10.7-11.8-11.5-15.1-11.5c-10,0-16.3,3.8-16.7,13.3
		c3.8,0.6,6.2-1.6,7.2-3.2c0.2-0.4,0.4-0.8,0.8-1.2c1.2-1.8,3.4-3.2,7.6-3.2c6.6,0,9.8,2.4,9.8,6.8c0,4-2,4.6-3.6,4.8l-11.4,1.4
		c-11.6,1.4-12.6,9.5-12.6,12.9c0,7.2,5.4,12.1,13,12.1c8,0,12-3.8,14.7-6.8c0.2,3.2,1.2,6.4,7.2,6.4c1.6,0,2.6-0.6,3.8-0.8v-5
		C272.5,67.9,271.6,68.1,271.1,68.1L271.1,68.1z">
  </path>
  <path class="st1" d="M214.5,68.1c-4.4,0-11.2-3-11.2-13.9c0-6.8,1.2-17.5,11-17.5c10.8,0,11.4,10.1,11.4,15.5
		C225.6,61.2,222,68.1,214.5,68.1z M215.7,30.4c-4.8,0-9,2-11.8,6.4h-0.2V10.5h-7v62.4h2.6c3.6-0.2,4-3.4,4-4v-1.2h0.2
		c1.4,2.4,4.2,6.4,11.2,6.4c14,0,17.9-13.3,17.9-23.2C232.6,39.3,226.4,30.4,215.7,30.4L215.7,30.4z">
  </path>
  <path class="st3" d="M78,114.1h24.7v7.6h-7.1V140H85.3v-18.3H78V114.1z">
  </path>
  <path class="st3" d="M115.2,124.5L110,140h-9.9l9.7-25.9h10.7l9.9,25.9h-10L115.2,124.5z">
  </path>
  <path class="st3" d="M128.1,114.1h24.7v7.6h-7.1V140h-10.3v-18.3h-7.3V114.1z">
  </path>
  <path class="st3" d="M165.3,124.5l-5.2,15.4h-9.9l9.7-25.9h10.7l9.9,25.9h-10L165.3,124.5z">
  </path>
  <path class="st3" d="M207.7,128.6h-9.6v7.6h10.7v3.9h-15.4v-25.8h14.8v3.9h-10.2v6.6h9.6V128.6z">
  </path>
  <path class="st3" d="M212.4,126.9c0-2.2-0.1-3.9-0.2-5.5h4.1l0.2,2.8h0.1c0.8-1.4,2.8-3.2,5.9-3.2c3.2,0,6.5,2.1,6.5,8v11h-4.7
		v-10.5c0-2.7-1-4.7-3.5-4.7c-1.8,0-3.1,1.3-3.6,2.8c-0.1,0.4-0.2,1-0.2,1.5V140h-4.7L212.4,126.9">
  </path>
  <path class="st3" d="M239,116.6v4.8h4.4v3.5H239v8.2c0,2.3,0.6,3.4,2.4,3.4c0.8,0,1.3-0.1,1.8-0.2l0.1,3.6
		c-0.7,0.3-1.9,0.5-3.4,0.5c-1.7,0-3.1-0.6-4-1.5c-1-1.1-1.5-2.8-1.5-5.2v-8.8h-2.6v-3.5h2.6v-3.5L239,116.6">
  </path>
  <path class="st3" d="M257.9,128.7c0-1.7-0.7-4.5-3.8-4.5c-2.9,0-4,2.6-4.3,4.5H257.9z M249.8,131.9c0.1,3.4,2.7,4.8,5.7,4.8
		c2.1,0,3.7-0.3,5.1-0.9l0.7,3.2c-1.6,0.7-3.8,1.2-6.4,1.2c-6,0-9.5-3.7-9.5-9.4c0-5.1,3.1-10,9-10s7.9,5,7.9,9.1
		c0,0.9-0.1,1.6-0.2,2L249.8,131.9L249.8,131.9z">
  </path>
  <path class="st3" d="M265.7,127.4c0-2.5,0-4.3-0.2-6h4l0.2,3.5h0.1c0.9-2.6,3-3.9,5-3.9c0.5,0,0.7,0,1.1,0.1v4.4
		c-0.4-0.1-0.8-0.1-1.4-0.1c-2.2,0-3.8,1.4-4.2,3.6c-0.1,0.4-0.1,0.9-0.1,1.4v9.7h-4.7L265.7,127.4">
  </path>
  <path class="st3" d="M283.4,132.2c0,0.5,0,0.9,0.1,1.3c0.5,1.9,2.1,3.3,4.1,3.3c2.9,0,4.7-2.5,4.7-6.1c0-3.3-1.6-6-4.6-6
		c-1.9,0-3.7,1.4-4.1,3.5c-0.1,0.4-0.2,0.8-0.2,1.2L283.4,132.2 M278.7,127.5c0-2.4-0.1-4.4-0.2-6.2h4.1l0.2,2.9h0.1
		c1.4-2.1,3.5-3.3,6.3-3.3c4.2,0,7.7,3.6,7.7,9.5c0,6.7-4.2,10-8.4,10c-2.3,0-4.2-1-5.2-2.5h-0.1v9.6h-4.6V127.5L278.7,127.5z">
  </path>
  <path class="st3" d="M300.5,127.4c0-2.5-0.1-4.3-0.2-6h4l0.2,3.5h0.1c0.9-2.6,3-3.9,5-3.9c0.5,0,0.7,0,1.1,0.1v4.4
		c-0.4-0.1-0.8-0.1-1.4-0.1c-2.2,0-3.8,1.4-4.2,3.6c-0.1,0.4-0.1,0.9-0.1,1.4v9.7h-4.7L300.5,127.4">
  </path>
  <path class="st3" d="M315.8,118.5c-1.6,0-2.7-1.2-2.7-2.7c0-1.5,1.1-2.7,2.8-2.7c1.7,0,2.7,1.2,2.7,2.7
		C318.6,117.3,317.5,118.5,315.8,118.5L315.8,118.5z M313.5,121.4h4.7V140h-4.7V121.4z">
  </path>
  <path class="st3" d="M322.6,135.7c1,0.6,3,1.4,4.7,1.4c2,0,3-0.9,3-2.1c0-1.2-0.8-1.9-3-2.7c-3.6-1.3-5.1-3.2-5.1-5.4
		c0-3.3,2.7-5.8,7-5.8c2,0,3.8,0.5,4.9,1.1l-0.9,3.3c-0.8-0.4-2.3-1.1-3.9-1.1c-1.6,0-2.6,0.8-2.6,2s0.9,1.8,3.2,2.6
		c3.3,1.2,4.9,2.9,4.9,5.7c0,3.4-2.6,5.8-7.5,5.8c-2.2,0-4.2-0.5-5.6-1.3L322.6,135.7">
  </path>
  <path class="st3" d="M349.6,128.7c0-1.7-0.7-4.5-3.8-4.5c-2.9,0-4,2.6-4.3,4.5H349.6z M341.5,131.9c0.1,3.4,2.7,4.8,5.7,4.8
		c2.1,0,3.7-0.3,5.1-0.9l0.7,3.2c-1.6,0.7-3.8,1.2-6.4,1.2c-6,0-9.5-3.7-9.5-9.4c0-5.1,3.1-10,9-10c5.9,0,7.9,5,7.9,9.1
		c0,0.9-0.1,1.6-0.2,2L341.5,131.9L341.5,131.9z">
  </path>
  <path class="st3" d="M61.9,129.1l-2-6.3c-0.5-1.6-0.9-3.4-1.3-4.8h-0.1c-0.4,1.5-0.8,3.3-1.2,4.8l-2,6.4H61.9z M54.5,132.7
		l-2.2,7.3h-4.8l8.2-25.8h5.9l8.3,25.8h-5l-2.3-7.3H54.5L54.5,132.7z">
  </path>
 </g>
</svg>