<svg version="1.1" id="Layer_1" xmlns:x="ns_extend;" xmlns:i="ns_ai;" xmlns:graph="ns_graphs;" xmlns="http://www.w3.org/2000/svg" xmlns:xlink="http://www.w3.org/1999/xlink" x="0px" y="0px" viewBox="0 0 84.1 84.7" style="enable-background:new 0 0 84.1 84.7;" xml:space="preserve">
 <style type="text/css">
  .st0{fill-rule:evenodd;clip-rule:evenodd;fill:#A6CE39;}
	.st1{fill-rule:evenodd;clip-rule:evenodd;fill:#231F20;}
	.st2{fill-rule:evenodd;clip-rule:evenodd;fill:#ED1C24;}
 </style>
 <metadata>
  <sfw xmlns="ns_sfw;">
   <slices>
   </slices>
   <sliceSourceBounds bottomLeftOrigin="true" height="84.7" width="84.1" x="-161.1" y="-152.2">
   </sliceSourceBounds>
  </sfw>
 </metadata>
 <g>
  <path class="st0" d="M12.6,0h58.9c6.9,0,12.7,5.7,12.7,12.6V72c0,7-5.8,12.7-12.7,12.7H12.6C5.6,84.7,0,79,0,72V12.6
		C0,5.7,5.6,0,12.6,0z">
  </path>
  <path class="st1" d="M44,10.6h-6.7v18.3c2.4,0,4.6,0.7,6.7,2.1V10.6z">
  </path>
  <path class="st2" d="M39,61.9c-1.5,2.6-3.8,3.8-6.8,3.8c-2.1,0-3.9-0.6-5.4-1.8c-1.5-1.3-2.7-3-3.4-5c-0.7-2-1.2-4.1-1.2-6.4
		c0-2.3,0.5-4.5,1.2-6.5c0.7-2,1.9-3.7,3.4-4.9c1.5-1.3,3.3-1.9,5.4-1.9c2,0,3.8,0.6,5.2,1.8c1.3,1.2,2.3,2.9,3,4.9
		c0.6,2,0.9,4.1,0.9,6.6C41.4,56.3,40.6,59.4,39,61.9L39,61.9z M50.9,41.9c-1.3-3.3-3.3-6.1-5.9-8.1c-2.6-2-5.6-3.1-9.3-3.1
		c-2.6,0-5.1,0.5-7.3,1.5c-2.2,1.1-4.1,2.6-5.4,4.6H23V10.6h-11V74c0,0,10.1,1.2,10.5-5.3v-0.8v-0.2l0.1,0.5
		c0.2,0.5,0.6,1.1,1.2,1.9c0.8,1,2.1,1.9,4.1,2.9c2.1,1,4.7,1.3,8,1.3c3.6,0,6.7-1,9.3-3c2.6-2.1,4.6-4.7,5.9-8.1
		c1.3-3.4,2-7,2-10.6C52.9,48.9,52.2,45.4,50.9,41.9L50.9,41.9z">
  </path>
  <path class="st1" d="M70.2,42c-3.6-9.2-13.6-13.9-22.4-9.6c-0.4,0.2-0.8,0.4-1.2,0.6c1.3,1.2,2.5,2.6,3.6,4.1
		c1.1-0.4,2.3-0.6,3.6-0.6c8.5,0,11,9.1,11,16s-2.7,15.9-11,15.9c-1.4,0-2.7-0.2-3.9-0.7c-1.2,1.7-2.6,3.2-4.1,4.4
		c0.4,0.2,0.8,0.4,1.3,0.7c2.1,1,4.7,1.3,8,1.3c3.6,0,6.7-1,9.3-3c2.6-2.1,4.6-4.7,5.9-8.1c1.3-3.4,2-7,2-10.6
		C72.2,48.9,71.5,45.4,70.2,42L70.2,42z">
  </path>
 </g>
</svg>